<mxfile host="Electron" modified="2024-06-29T07:56:32.599Z" agent="Mozilla/5.0 (Windows NT 10.0; Win64; x64) AppleWebKit/537.36 (KHTML, like Gecko) draw.io/24.5.3 Chrome/124.0.6367.207 Electron/30.0.6 Safari/537.36" etag="nch3VcMnywzybGy6F5cc" version="24.5.3" type="device">
  <diagram id="prtHgNgQTEPvFCAcTncT" name="Page-1">
    <mxGraphModel dx="2100" dy="1242" grid="1" gridSize="10" guides="1" tooltips="1" connect="1" arrows="1" fold="1" page="1" pageScale="1" pageWidth="827" pageHeight="1169" math="0" shadow="0">
      <root>
        <mxCell id="0" />
        <mxCell id="1" parent="0" />
        <mxCell id="dNxyNK7c78bLwvsdeMH5-11" value="&lt;font style=&quot;font-size: 18px;&quot;&gt;Reactions&lt;/font&gt;" style="swimlane;html=1;startSize=30;horizontal=1;containerType=tree;glass=0;fillColor=#f5f5f5;strokeColor=#666666;sketch=0;shadow=0;rounded=0;strokeWidth=2;fontColor=#333333;" parent="1" vertex="1">
          <mxGeometry x="40" y="80" width="1570" height="840" as="geometry">
            <mxRectangle x="70" y="100" width="90" height="20" as="alternateBounds" />
          </mxGeometry>
        </mxCell>
        <UserObject label="&lt;font style=&quot;font-size: 20px;&quot;&gt;Bimolecular&lt;/font&gt;&lt;br&gt;&lt;span style=&quot;font-weight: normal;&quot;&gt;Molecule A + Molecule B&lt;/span&gt;" name="Tessa Miller" position="CFO" location="Office 1" email="me@example.com" placeholders="1" id="dNxyNK7c78bLwvsdeMH5-12">
          <mxCell style="treeFolding=1;fontStyle=1;fontSize=14;html=1;fillColor=#d5e8d4;strokeColor=#82b366;shadow=1;rounded=1;" parent="dNxyNK7c78bLwvsdeMH5-11" vertex="1">
            <mxGeometry x="713.9899999999999" y="50" width="183" height="50" as="geometry" />
          </mxCell>
        </UserObject>
        <mxCell id="dNxyNK7c78bLwvsdeMH5-13" value="" style="endArrow=blockThin;endFill=1;fontSize=11;edgeStyle=elbowEdgeStyle;elbow=vertical;rounded=0;shadow=0;strokeWidth=2;" parent="dNxyNK7c78bLwvsdeMH5-11" source="dNxyNK7c78bLwvsdeMH5-12" target="dNxyNK7c78bLwvsdeMH5-14" edge="1">
          <mxGeometry relative="1" as="geometry">
            <Array as="points">
              <mxPoint x="803.4899999999999" y="110" />
              <mxPoint x="462.49" y="90" />
              <mxPoint x="512.49" y="90" />
              <mxPoint x="462.49" y="80" />
              <mxPoint x="402.49" y="65" />
              <mxPoint x="282.49" y="90" />
            </Array>
          </mxGeometry>
        </mxCell>
        <mxCell id="nthaH2KU5fV0fkv0nu2V-2" style="edgeStyle=elbowEdgeStyle;rounded=0;orthogonalLoop=1;jettySize=auto;html=1;entryX=0.5;entryY=0;entryDx=0;entryDy=0;elbow=vertical;strokeWidth=2;exitX=0;exitY=0.5;exitDx=0;exitDy=0;" parent="dNxyNK7c78bLwvsdeMH5-11" source="dNxyNK7c78bLwvsdeMH5-14" target="nthaH2KU5fV0fkv0nu2V-1" edge="1">
          <mxGeometry relative="1" as="geometry">
            <Array as="points">
              <mxPoint x="311.92" y="150" />
            </Array>
          </mxGeometry>
        </mxCell>
        <mxCell id="Xs8TxQLDRZmYlR812Nf4-3" value="&lt;font style=&quot;font-size: 14px;&quot;&gt;Reaction on&amp;nbsp; particle pair {a,b}&lt;/font&gt;" style="edgeLabel;html=1;align=center;verticalAlign=middle;resizable=0;points=[];" parent="nthaH2KU5fV0fkv0nu2V-2" vertex="1" connectable="0">
          <mxGeometry x="0.0244" y="-1" relative="1" as="geometry">
            <mxPoint x="24" y="1" as="offset" />
          </mxGeometry>
        </mxCell>
        <mxCell id="Xs8TxQLDRZmYlR812Nf4-38" style="edgeStyle=orthogonalEdgeStyle;rounded=0;orthogonalLoop=1;jettySize=auto;html=1;dashed=1;dashPattern=1 4;entryX=0.5;entryY=0;entryDx=0;entryDy=0;" parent="dNxyNK7c78bLwvsdeMH5-11" source="dNxyNK7c78bLwvsdeMH5-14" target="Xs8TxQLDRZmYlR812Nf4-39" edge="1">
          <mxGeometry relative="1" as="geometry">
            <mxPoint x="691.92" y="200" as="targetPoint" />
          </mxGeometry>
        </mxCell>
        <mxCell id="Xs8TxQLDRZmYlR812Nf4-46" value="&lt;font style=&quot;font-size: 14px;&quot;&gt;Reaction on&amp;nbsp; particle pair {n,m}&lt;/font&gt;" style="edgeLabel;html=1;align=center;verticalAlign=middle;resizable=0;points=[];" parent="Xs8TxQLDRZmYlR812Nf4-38" vertex="1" connectable="0">
          <mxGeometry x="-0.1541" relative="1" as="geometry">
            <mxPoint x="-4" as="offset" />
          </mxGeometry>
        </mxCell>
        <UserObject label="Enzymatic" name="Edward Morrison" position="Brand Manager" location="Office 2" email="me@example.com" placeholders="1" id="dNxyNK7c78bLwvsdeMH5-14">
          <mxCell style="treeFolding=1;fontStyle=1;fontSize=18;fillColor=#dae8fc;strokeColor=#6c8ebf;rounded=1;shadow=1;" parent="dNxyNK7c78bLwvsdeMH5-11" vertex="1">
            <mxGeometry x="490.96" y="130" width="116" height="40" as="geometry" />
          </mxCell>
        </UserObject>
        <mxCell id="nthaH2KU5fV0fkv0nu2V-23" style="edgeStyle=orthogonalEdgeStyle;rounded=0;orthogonalLoop=1;jettySize=auto;html=1;" parent="dNxyNK7c78bLwvsdeMH5-11" source="nthaH2KU5fV0fkv0nu2V-1" target="nthaH2KU5fV0fkv0nu2V-21" edge="1">
          <mxGeometry relative="1" as="geometry" />
        </mxCell>
        <mxCell id="Xs8TxQLDRZmYlR812Nf4-2" value="&lt;font style=&quot;font-size: 14px;&quot;&gt;Reaction path 2&lt;/font&gt;" style="edgeLabel;html=1;align=center;verticalAlign=middle;resizable=0;points=[];" parent="nthaH2KU5fV0fkv0nu2V-23" vertex="1" connectable="0">
          <mxGeometry x="-0.0407" relative="1" as="geometry">
            <mxPoint as="offset" />
          </mxGeometry>
        </mxCell>
        <mxCell id="Xs8TxQLDRZmYlR812Nf4-17" style="edgeStyle=orthogonalEdgeStyle;rounded=0;orthogonalLoop=1;jettySize=auto;html=1;exitX=1;exitY=0.5;exitDx=0;exitDy=0;entryX=0.5;entryY=0;entryDx=0;entryDy=0;dashed=1;dashPattern=1 4;" parent="dNxyNK7c78bLwvsdeMH5-11" source="nthaH2KU5fV0fkv0nu2V-1" target="Xs8TxQLDRZmYlR812Nf4-18" edge="1">
          <mxGeometry relative="1" as="geometry">
            <mxPoint x="291.92" y="280" as="targetPoint" />
          </mxGeometry>
        </mxCell>
        <mxCell id="Xs8TxQLDRZmYlR812Nf4-25" value="&lt;font style=&quot;font-size: 14px;&quot;&gt;Reaction path n&lt;/font&gt;" style="edgeLabel;html=1;align=center;verticalAlign=middle;resizable=0;points=[];" parent="Xs8TxQLDRZmYlR812Nf4-17" vertex="1" connectable="0">
          <mxGeometry x="0.1534" relative="1" as="geometry">
            <mxPoint y="7" as="offset" />
          </mxGeometry>
        </mxCell>
        <UserObject label="|&lt;b&gt;r&lt;/b&gt;&lt;sub&gt;ab&lt;/sub&gt;|≤ R&lt;sub&gt;react&lt;/sub&gt;" name="Edward Morrison" position="Brand Manager" location="Office 2" email="me@example.com" placeholders="1" id="nthaH2KU5fV0fkv0nu2V-1">
          <mxCell style="treeFolding=1;fontSize=14;fillColor=#fff2cc;strokeColor=#d6b656;rounded=1;shadow=1;html=1;" parent="dNxyNK7c78bLwvsdeMH5-11" vertex="1">
            <mxGeometry x="190.05" y="200" width="117.93" height="30" as="geometry" />
          </mxCell>
        </UserObject>
        <UserObject label="|&lt;b&gt;r&lt;/b&gt;&lt;sub&gt;cd&lt;/sub&gt;|&amp;nbsp;≤ R&lt;sub&gt;react&lt;/sub&gt;" name="Edward Morrison" position="Brand Manager" location="Office 2" email="me@example.com" placeholders="1" id="nthaH2KU5fV0fkv0nu2V-3">
          <mxCell style="treeFolding=1;fontSize=14;fillColor=#fff2cc;strokeColor=#d6b656;rounded=1;shadow=1;html=1;" parent="dNxyNK7c78bLwvsdeMH5-11" vertex="1">
            <mxGeometry x="489.71" y="210" width="118.5" height="30" as="geometry" />
          </mxCell>
        </UserObject>
        <UserObject label="A + B → D + B" name="Edward Morrison" position="Brand Manager" location="Office 2" email="me@example.com" placeholders="1" id="nthaH2KU5fV0fkv0nu2V-21">
          <mxCell style="treeFolding=1;fontSize=16;rounded=1;" parent="dNxyNK7c78bLwvsdeMH5-11" vertex="1">
            <mxGeometry x="190" y="280" width="113.26" height="30" as="geometry" />
          </mxCell>
        </UserObject>
        <UserObject label="A + B → C + B" name="Edward Morrison" position="Brand Manager" location="Office 2" email="me@example.com" placeholders="1" id="nthaH2KU5fV0fkv0nu2V-5">
          <mxCell style="treeFolding=1;fontSize=16;rounded=1;sketch=0;" parent="dNxyNK7c78bLwvsdeMH5-11" vertex="1">
            <mxGeometry x="60" y="280" width="117.98" height="30" as="geometry" />
          </mxCell>
        </UserObject>
        <mxCell id="nthaH2KU5fV0fkv0nu2V-20" style="edgeStyle=orthogonalEdgeStyle;rounded=0;orthogonalLoop=1;jettySize=auto;html=1;entryX=0.5;entryY=0;entryDx=0;entryDy=0;" parent="dNxyNK7c78bLwvsdeMH5-11" source="nthaH2KU5fV0fkv0nu2V-1" target="nthaH2KU5fV0fkv0nu2V-5" edge="1">
          <mxGeometry relative="1" as="geometry" />
        </mxCell>
        <mxCell id="Xs8TxQLDRZmYlR812Nf4-1" value="&lt;font style=&quot;font-size: 14px;&quot;&gt;Reaction path 1&lt;/font&gt;" style="edgeLabel;html=1;align=center;verticalAlign=middle;resizable=0;points=[];" parent="nthaH2KU5fV0fkv0nu2V-20" vertex="1" connectable="0">
          <mxGeometry x="-0.1812" y="1" relative="1" as="geometry">
            <mxPoint x="-14" y="24" as="offset" />
          </mxGeometry>
        </mxCell>
        <UserObject label="A + B → E + B" name="Edward Morrison" position="Brand Manager" location="Office 2" email="me@example.com" placeholders="1" id="nthaH2KU5fV0fkv0nu2V-25">
          <mxCell style="treeFolding=1;fontSize=16;rounded=1;" parent="dNxyNK7c78bLwvsdeMH5-11" vertex="1">
            <mxGeometry x="420" y="280" width="117.39" height="30" as="geometry" />
          </mxCell>
        </UserObject>
        <mxCell id="nthaH2KU5fV0fkv0nu2V-26" style="edgeStyle=orthogonalEdgeStyle;rounded=0;orthogonalLoop=1;jettySize=auto;html=1;entryX=0.5;entryY=0;entryDx=0;entryDy=0;" parent="dNxyNK7c78bLwvsdeMH5-11" source="nthaH2KU5fV0fkv0nu2V-3" target="nthaH2KU5fV0fkv0nu2V-25" edge="1">
          <mxGeometry relative="1" as="geometry" />
        </mxCell>
        <UserObject label="" name="Edward Morrison" position="Brand Manager" location="Office 2" email="me@example.com" placeholders="1" id="nthaH2KU5fV0fkv0nu2V-24">
          <mxCell style="treeFolding=1;fontSize=14;rounded=1;dashed=1;dashPattern=1 4;" parent="dNxyNK7c78bLwvsdeMH5-11" vertex="1">
            <mxGeometry x="566.14" y="280" width="107.68" height="30" as="geometry" />
          </mxCell>
        </UserObject>
        <mxCell id="nthaH2KU5fV0fkv0nu2V-27" style="edgeStyle=orthogonalEdgeStyle;rounded=0;orthogonalLoop=1;jettySize=auto;html=1;dashed=1;dashPattern=1 4;" parent="dNxyNK7c78bLwvsdeMH5-11" source="nthaH2KU5fV0fkv0nu2V-3" target="nthaH2KU5fV0fkv0nu2V-24" edge="1">
          <mxGeometry relative="1" as="geometry" />
        </mxCell>
        <mxCell id="nthaH2KU5fV0fkv0nu2V-60" value="" style="edgeStyle=elbowEdgeStyle;rounded=0;orthogonalLoop=1;jettySize=auto;html=1;entryX=0.5;entryY=0;entryDx=0;entryDy=0;elbow=vertical;shadow=0;strokeWidth=2;" parent="dNxyNK7c78bLwvsdeMH5-11" source="dNxyNK7c78bLwvsdeMH5-12" target="nthaH2KU5fV0fkv0nu2V-61" edge="1">
          <mxGeometry relative="1" as="geometry">
            <Array as="points">
              <mxPoint x="803.4899999999999" y="110" />
              <mxPoint x="1142.49" y="90" />
            </Array>
          </mxGeometry>
        </mxCell>
        <UserObject label="Fusion" name="Tessa Miller" position="CFO" location="Office 1" email="me@example.com" placeholders="1" id="nthaH2KU5fV0fkv0nu2V-61">
          <mxCell style="treeFolding=1;fontStyle=1;fontSize=18;fillColor=#dae8fc;strokeColor=#6c8ebf;rounded=1;shadow=1;sketch=0;" parent="dNxyNK7c78bLwvsdeMH5-11" vertex="1">
            <mxGeometry x="1196.63" y="130" width="120" height="40" as="geometry" />
          </mxCell>
        </UserObject>
        <UserObject label="|&lt;b&gt;r&lt;/b&gt;&lt;sub&gt;ab&lt;/sub&gt;|&amp;nbsp;≤ R&lt;sub&gt;react&lt;/sub&gt;" name="Tessa Miller" position="CFO" location="Office 1" email="me@example.com" placeholders="1" id="nthaH2KU5fV0fkv0nu2V-75">
          <mxCell style="treeFolding=1;fontSize=14;fillColor=#fff2cc;strokeColor=#d6b656;rounded=1;shadow=1;html=1;" parent="dNxyNK7c78bLwvsdeMH5-11" vertex="1">
            <mxGeometry x="1036.6299999999999" y="200" width="160" height="30" as="geometry" />
          </mxCell>
        </UserObject>
        <mxCell id="nthaH2KU5fV0fkv0nu2V-74" value="" style="rounded=0;orthogonalLoop=1;jettySize=auto;html=1;entryX=0.5;entryY=0;entryDx=0;entryDy=0;edgeStyle=elbowEdgeStyle;elbow=vertical;exitX=0.5;exitY=1;exitDx=0;exitDy=0;strokeWidth=2;" parent="dNxyNK7c78bLwvsdeMH5-11" source="nthaH2KU5fV0fkv0nu2V-61" target="nthaH2KU5fV0fkv0nu2V-75" edge="1">
          <mxGeometry relative="1" as="geometry">
            <mxPoint x="1226.63" y="160" as="sourcePoint" />
            <Array as="points">
              <mxPoint x="1246.63" y="180" />
            </Array>
          </mxGeometry>
        </mxCell>
        <mxCell id="nthaH2KU5fV0fkv0nu2V-77" value="" style="edgeStyle=elbowEdgeStyle;rounded=0;orthogonalLoop=1;jettySize=auto;html=1;elbow=vertical;strokeWidth=2;dashed=1;dashPattern=1 4;" parent="dNxyNK7c78bLwvsdeMH5-11" source="nthaH2KU5fV0fkv0nu2V-61" target="nthaH2KU5fV0fkv0nu2V-78" edge="1">
          <mxGeometry relative="1" as="geometry">
            <mxPoint x="993.6299999999999" y="220" as="sourcePoint" />
            <Array as="points">
              <mxPoint x="1256.63" y="180" />
            </Array>
          </mxGeometry>
        </mxCell>
        <UserObject label="" name="Tessa Miller" position="CFO" location="Office 1" email="me@example.com" placeholders="1" id="nthaH2KU5fV0fkv0nu2V-78">
          <mxCell style="treeFolding=1;fontSize=14;fillColor=#fff2cc;strokeColor=#d6b656;rounded=1;shadow=1;html=1;dashed=1;dashPattern=1 4;" parent="dNxyNK7c78bLwvsdeMH5-11" vertex="1">
            <mxGeometry x="1335.63" y="200" width="150" height="30" as="geometry" />
          </mxCell>
        </UserObject>
        <mxCell id="nthaH2KU5fV0fkv0nu2V-79" value="" style="rounded=0;orthogonalLoop=1;jettySize=auto;html=1;entryX=0.5;entryY=0;entryDx=0;entryDy=0;edgeStyle=elbowEdgeStyle;elbow=vertical;" parent="dNxyNK7c78bLwvsdeMH5-11" source="nthaH2KU5fV0fkv0nu2V-75" target="nthaH2KU5fV0fkv0nu2V-80" edge="1">
          <mxGeometry relative="1" as="geometry">
            <mxPoint x="1306.63" y="290" as="sourcePoint" />
          </mxGeometry>
        </mxCell>
        <UserObject label="A + B → C" name="Tessa Miller" position="CFO" location="Office 1" email="me@example.com" placeholders="1" id="nthaH2KU5fV0fkv0nu2V-80">
          <mxCell style="treeFolding=1;fontSize=16;rounded=1;" parent="dNxyNK7c78bLwvsdeMH5-11" vertex="1">
            <mxGeometry x="991.92" y="280" width="88.08" height="30" as="geometry" />
          </mxCell>
        </UserObject>
        <mxCell id="nthaH2KU5fV0fkv0nu2V-82" value="" style="rounded=0;orthogonalLoop=1;jettySize=auto;html=1;entryX=0.5;entryY=0;entryDx=0;entryDy=0;edgeStyle=elbowEdgeStyle;elbow=vertical;exitX=0.5;exitY=1;exitDx=0;exitDy=0;dashed=1;dashPattern=1 4;" parent="dNxyNK7c78bLwvsdeMH5-11" source="nthaH2KU5fV0fkv0nu2V-75" target="nthaH2KU5fV0fkv0nu2V-83" edge="1">
          <mxGeometry relative="1" as="geometry">
            <mxPoint x="1296.63" y="280" as="sourcePoint" />
          </mxGeometry>
        </mxCell>
        <UserObject label="" name="Tessa Miller" position="CFO" location="Office 1" email="me@example.com" placeholders="1" id="nthaH2KU5fV0fkv0nu2V-83">
          <mxCell style="treeFolding=1;fontSize=14;rounded=1;dashed=1;dashPattern=1 4;" parent="dNxyNK7c78bLwvsdeMH5-11" vertex="1">
            <mxGeometry x="1154.13" y="280" width="80" height="30" as="geometry" />
          </mxCell>
        </UserObject>
        <mxCell id="nthaH2KU5fV0fkv0nu2V-85" value="" style="edgeStyle=elbowEdgeStyle;rounded=0;orthogonalLoop=1;jettySize=auto;html=1;elbow=vertical;dashed=1;dashPattern=1 4;" parent="dNxyNK7c78bLwvsdeMH5-11" source="nthaH2KU5fV0fkv0nu2V-78" target="nthaH2KU5fV0fkv0nu2V-86" edge="1">
          <mxGeometry relative="1" as="geometry">
            <mxPoint x="1296.63" y="280" as="sourcePoint" />
          </mxGeometry>
        </mxCell>
        <UserObject label="" name="Tessa Miller" position="CFO" location="Office 1" email="me@example.com" placeholders="1" id="nthaH2KU5fV0fkv0nu2V-86">
          <mxCell style="treeFolding=1;fontSize=14;rounded=1;dashed=1;dashPattern=1 4;" parent="dNxyNK7c78bLwvsdeMH5-11" vertex="1">
            <mxGeometry x="1370" y="280" width="80" height="30" as="geometry" />
          </mxCell>
        </UserObject>
        <UserObject label="&lt;font style=&quot;font-size: 20px;&quot;&gt;Unimolecular&lt;/font&gt;&lt;br&gt;&lt;span style=&quot;font-weight: normal;&quot;&gt;&lt;font style=&quot;font-size: 18px;&quot;&gt;Molecule A&lt;/font&gt;&lt;/span&gt;" name="Tessa Miller" position="CFO" location="Office 1" email="me@example.com" placeholders="1" id="nthaH2KU5fV0fkv0nu2V-89">
          <mxCell style="treeFolding=1;fontStyle=1;fontSize=14;html=1;fillColor=#d5e8d4;strokeColor=#82b366;rounded=1;shadow=1;" parent="dNxyNK7c78bLwvsdeMH5-11" vertex="1">
            <mxGeometry x="720" y="360" width="160" height="50" as="geometry" />
          </mxCell>
        </UserObject>
        <mxCell id="nthaH2KU5fV0fkv0nu2V-90" value="" style="edgeStyle=elbowEdgeStyle;shape=connector;rounded=0;orthogonalLoop=1;jettySize=auto;elbow=vertical;html=1;shadow=0;strokeWidth=2;" parent="dNxyNK7c78bLwvsdeMH5-11" source="nthaH2KU5fV0fkv0nu2V-89" target="nthaH2KU5fV0fkv0nu2V-91" edge="1">
          <mxGeometry relative="1" as="geometry">
            <Array as="points">
              <mxPoint x="719.91" y="430" />
            </Array>
          </mxGeometry>
        </mxCell>
        <mxCell id="Xs8TxQLDRZmYlR812Nf4-197" style="edgeStyle=orthogonalEdgeStyle;rounded=0;orthogonalLoop=1;jettySize=auto;html=1;entryX=0.5;entryY=0;entryDx=0;entryDy=0;" parent="dNxyNK7c78bLwvsdeMH5-11" source="nthaH2KU5fV0fkv0nu2V-91" target="nthaH2KU5fV0fkv0nu2V-100" edge="1">
          <mxGeometry relative="1" as="geometry" />
        </mxCell>
        <mxCell id="Xs8TxQLDRZmYlR812Nf4-198" value="&lt;font style=&quot;font-size: 14px;&quot;&gt;Reaction path 1&lt;/font&gt;" style="edgeLabel;html=1;align=center;verticalAlign=middle;resizable=0;points=[];" parent="Xs8TxQLDRZmYlR812Nf4-197" vertex="1" connectable="0">
          <mxGeometry x="0.3969" relative="1" as="geometry">
            <mxPoint y="1" as="offset" />
          </mxGeometry>
        </mxCell>
        <UserObject label="Conversion" name="Tessa Miller" position="CFO" location="Office 1" email="me@example.com" placeholders="1" id="nthaH2KU5fV0fkv0nu2V-91">
          <mxCell style="treeFolding=1;fontStyle=1;fontSize=18;fillColor=#dae8fc;strokeColor=#6c8ebf;rounded=1;shadow=1;" parent="dNxyNK7c78bLwvsdeMH5-11" vertex="1">
            <mxGeometry x="148.33" y="450" width="133" height="40" as="geometry" />
          </mxCell>
        </UserObject>
        <mxCell id="nthaH2KU5fV0fkv0nu2V-92" value="" style="edgeStyle=elbowEdgeStyle;shape=connector;rounded=0;orthogonalLoop=1;jettySize=auto;elbow=vertical;html=1;shadow=0;strokeWidth=2;" parent="dNxyNK7c78bLwvsdeMH5-11" source="nthaH2KU5fV0fkv0nu2V-89" target="nthaH2KU5fV0fkv0nu2V-93" edge="1">
          <mxGeometry relative="1" as="geometry">
            <Array as="points">
              <mxPoint x="719.91" y="430" />
            </Array>
          </mxGeometry>
        </mxCell>
        <mxCell id="Xs8TxQLDRZmYlR812Nf4-68" style="edgeStyle=orthogonalEdgeStyle;rounded=0;orthogonalLoop=1;jettySize=auto;html=1;entryX=0.5;entryY=0;entryDx=0;entryDy=0;dashed=1;dashPattern=1 4;" parent="dNxyNK7c78bLwvsdeMH5-11" source="nthaH2KU5fV0fkv0nu2V-93" target="Xs8TxQLDRZmYlR812Nf4-65" edge="1">
          <mxGeometry relative="1" as="geometry">
            <Array as="points">
              <mxPoint x="640.59" y="510" />
              <mxPoint x="785.59" y="510" />
            </Array>
          </mxGeometry>
        </mxCell>
        <UserObject label="Production" name="Tessa Miller" position="CFO" location="Office 1" email="me@example.com" placeholders="1" id="nthaH2KU5fV0fkv0nu2V-93">
          <mxCell style="treeFolding=1;fontStyle=1;fontSize=18;fillColor=#dae8fc;strokeColor=#6c8ebf;rounded=1;shadow=1;" parent="dNxyNK7c78bLwvsdeMH5-11" vertex="1">
            <mxGeometry x="643.6600000000002" y="450" width="133" height="40" as="geometry" />
          </mxCell>
        </UserObject>
        <mxCell id="nthaH2KU5fV0fkv0nu2V-95" value="" style="edgeStyle=elbowEdgeStyle;shape=connector;rounded=0;orthogonalLoop=1;jettySize=auto;elbow=vertical;html=1;shadow=0;" parent="dNxyNK7c78bLwvsdeMH5-11" source="nthaH2KU5fV0fkv0nu2V-89" target="nthaH2KU5fV0fkv0nu2V-96" edge="1">
          <mxGeometry relative="1" as="geometry">
            <Array as="points">
              <mxPoint x="999.91" y="430" />
              <mxPoint x="999.91" y="420" />
              <mxPoint x="999.91" y="430" />
              <mxPoint x="979.91" y="430" />
            </Array>
          </mxGeometry>
        </mxCell>
        <mxCell id="Xs8TxQLDRZmYlR812Nf4-195" style="edgeStyle=orthogonalEdgeStyle;rounded=0;orthogonalLoop=1;jettySize=auto;html=1;entryX=0.5;entryY=0;entryDx=0;entryDy=0;dashed=1;dashPattern=1 4;" parent="dNxyNK7c78bLwvsdeMH5-11" source="nthaH2KU5fV0fkv0nu2V-96" target="Xs8TxQLDRZmYlR812Nf4-73" edge="1">
          <mxGeometry relative="1" as="geometry">
            <Array as="points">
              <mxPoint x="1146.72" y="510" />
              <mxPoint x="1233.72" y="510" />
              <mxPoint x="1233.72" y="540" />
            </Array>
          </mxGeometry>
        </mxCell>
        <UserObject label="Fission" name="Tessa Miller" position="CFO" location="Office 1" email="me@example.com" placeholders="1" id="nthaH2KU5fV0fkv0nu2V-96">
          <mxCell style="treeFolding=1;fontStyle=1;fontSize=18;fillColor=#dae8fc;strokeColor=#6c8ebf;rounded=1;shadow=1;" parent="dNxyNK7c78bLwvsdeMH5-11" vertex="1">
            <mxGeometry x="1080.2200000000003" y="450" width="133" height="40" as="geometry" />
          </mxCell>
        </UserObject>
        <mxCell id="nthaH2KU5fV0fkv0nu2V-97" value="" style="edgeStyle=elbowEdgeStyle;shape=connector;rounded=0;orthogonalLoop=1;jettySize=auto;elbow=vertical;html=1;shadow=0;strokeWidth=2;" parent="dNxyNK7c78bLwvsdeMH5-11" source="nthaH2KU5fV0fkv0nu2V-89" target="nthaH2KU5fV0fkv0nu2V-98" edge="1">
          <mxGeometry relative="1" as="geometry">
            <Array as="points">
              <mxPoint x="999.91" y="430" />
              <mxPoint x="1139.9099999999999" y="433" />
            </Array>
          </mxGeometry>
        </mxCell>
        <UserObject label="Decay" name="Tessa Miller" position="CFO" location="Office 1" email="me@example.com" placeholders="1" id="nthaH2KU5fV0fkv0nu2V-98">
          <mxCell style="treeFolding=1;fontStyle=1;fontSize=18;fillColor=#dae8fc;strokeColor=#6c8ebf;rounded=1;shadow=1;" parent="dNxyNK7c78bLwvsdeMH5-11" vertex="1">
            <mxGeometry x="1374.8500000000001" y="450" width="133" height="40" as="geometry" />
          </mxCell>
        </UserObject>
        <UserObject label="A → B" name="Tessa Miller" position="CFO" location="Office 1" email="me@example.com" placeholders="1" id="nthaH2KU5fV0fkv0nu2V-100">
          <mxCell style="treeFolding=1;fontStyle=0;fontSize=16;rounded=1;" parent="dNxyNK7c78bLwvsdeMH5-11" vertex="1">
            <mxGeometry x="62.150000000000006" y="540" width="68.5" height="30" as="geometry" />
          </mxCell>
        </UserObject>
        <mxCell id="nthaH2KU5fV0fkv0nu2V-104" value="" style="edgeStyle=elbowEdgeStyle;shape=connector;rounded=0;orthogonalLoop=1;jettySize=auto;elbow=vertical;html=1;" parent="dNxyNK7c78bLwvsdeMH5-11" source="nthaH2KU5fV0fkv0nu2V-93" target="nthaH2KU5fV0fkv0nu2V-105" edge="1">
          <mxGeometry relative="1" as="geometry">
            <mxPoint x="824.41" y="510" as="sourcePoint" />
          </mxGeometry>
        </mxCell>
        <UserObject label="&lt;font style=&quot;font-size: 16px;&quot;&gt;&lt;span style=&quot;font-weight: 400;&quot;&gt;A → B + N&lt;/span&gt;&lt;span style=&quot;font-weight: 400;&quot;&gt;&lt;sub&gt;C&lt;/sub&gt;&lt;/span&gt;&lt;span style=&quot;font-weight: 400;&quot;&gt;⋅C + ...&lt;/span&gt;&lt;/font&gt;" name="Tessa Miller" position="CFO" location="Office 1" email="me@example.com" placeholders="1" id="nthaH2KU5fV0fkv0nu2V-105">
          <mxCell style="treeFolding=1;fontStyle=1;fontSize=14;html=1;rounded=1;" parent="dNxyNK7c78bLwvsdeMH5-11" vertex="1">
            <mxGeometry x="637.79" y="540" width="144.75" height="30" as="geometry" />
          </mxCell>
        </UserObject>
        <mxCell id="nthaH2KU5fV0fkv0nu2V-106" value="" style="edgeStyle=elbowEdgeStyle;shape=connector;rounded=0;orthogonalLoop=1;jettySize=auto;elbow=vertical;html=1;entryX=0.5;entryY=0;entryDx=0;entryDy=0;" parent="dNxyNK7c78bLwvsdeMH5-11" source="nthaH2KU5fV0fkv0nu2V-93" target="nthaH2KU5fV0fkv0nu2V-107" edge="1">
          <mxGeometry relative="1" as="geometry">
            <mxPoint x="824.41" y="510" as="sourcePoint" />
            <Array as="points">
              <mxPoint x="544.59" y="510" />
            </Array>
          </mxGeometry>
        </mxCell>
        <UserObject label="&lt;font style=&quot;font-size: 16px;&quot;&gt;A → A + N&lt;sub&gt;B&lt;/sub&gt;⋅B +N&lt;sub&gt;C&lt;/sub&gt;⋅C + ...&lt;/font&gt;" name="Tessa Miller" position="CFO" location="Office 1" email="me@example.com" placeholders="1" id="nthaH2KU5fV0fkv0nu2V-107">
          <mxCell style="treeFolding=1;fontStyle=0;fontSize=14;html=1;rounded=1;" parent="dNxyNK7c78bLwvsdeMH5-11" vertex="1">
            <mxGeometry x="420" y="540" width="194.59" height="30" as="geometry" />
          </mxCell>
        </UserObject>
        <mxCell id="nthaH2KU5fV0fkv0nu2V-108" value="" style="edgeStyle=elbowEdgeStyle;shape=connector;rounded=0;orthogonalLoop=1;jettySize=auto;elbow=vertical;html=1;entryX=0.5;entryY=0;entryDx=0;entryDy=0;" parent="dNxyNK7c78bLwvsdeMH5-11" source="nthaH2KU5fV0fkv0nu2V-96" target="nthaH2KU5fV0fkv0nu2V-109" edge="1">
          <mxGeometry relative="1" as="geometry">
            <mxPoint x="783.54" y="510" as="sourcePoint" />
            <Array as="points">
              <mxPoint x="1146.72" y="510" />
            </Array>
          </mxGeometry>
        </mxCell>
        <UserObject label="A → B + C" name="Tessa Miller" position="CFO" location="Office 1" email="me@example.com" placeholders="1" id="nthaH2KU5fV0fkv0nu2V-109">
          <mxCell style="treeFolding=1;fontStyle=0;fontSize=16;rounded=1;" parent="dNxyNK7c78bLwvsdeMH5-11" vertex="1">
            <mxGeometry x="1005.51" y="540" width="100" height="30" as="geometry" />
          </mxCell>
        </UserObject>
        <mxCell id="nthaH2KU5fV0fkv0nu2V-161" value="" style="edgeStyle=elbowEdgeStyle;shape=connector;rounded=0;orthogonalLoop=1;jettySize=auto;elbow=vertical;html=1;" parent="dNxyNK7c78bLwvsdeMH5-11" source="nthaH2KU5fV0fkv0nu2V-98" target="nthaH2KU5fV0fkv0nu2V-162" edge="1">
          <mxGeometry relative="1" as="geometry">
            <mxPoint x="824.41" y="510" as="sourcePoint" />
          </mxGeometry>
        </mxCell>
        <UserObject label="A → ∅" name="Tessa Miller" position="CFO" location="Office 1" email="me@example.com" placeholders="1" id="nthaH2KU5fV0fkv0nu2V-162">
          <mxCell style="treeFolding=1;fontStyle=0;fontSize=16;rounded=1;" parent="dNxyNK7c78bLwvsdeMH5-11" vertex="1">
            <mxGeometry x="1407.0100000000002" y="540" width="68.68" height="30" as="geometry" />
          </mxCell>
        </UserObject>
        <mxCell id="nthaH2KU5fV0fkv0nu2V-173" value="" style="edgeStyle=elbowEdgeStyle;shape=connector;rounded=0;orthogonalLoop=1;jettySize=auto;elbow=horizontal;html=1;" parent="dNxyNK7c78bLwvsdeMH5-11" source="nthaH2KU5fV0fkv0nu2V-91" target="nthaH2KU5fV0fkv0nu2V-174" edge="1">
          <mxGeometry relative="1" as="geometry">
            <mxPoint x="851.9700000000001" y="510" as="sourcePoint" />
          </mxGeometry>
        </mxCell>
        <mxCell id="Xs8TxQLDRZmYlR812Nf4-71" value="&lt;font style=&quot;font-size: 14px;&quot;&gt;Reaction path 2&lt;/font&gt;" style="edgeLabel;html=1;align=center;verticalAlign=middle;resizable=0;points=[];" parent="nthaH2KU5fV0fkv0nu2V-173" vertex="1" connectable="0">
          <mxGeometry x="-0.3771" y="-2" relative="1" as="geometry">
            <mxPoint as="offset" />
          </mxGeometry>
        </mxCell>
        <UserObject label="&lt;font style=&quot;font-size: 16px;&quot;&gt;&lt;span style=&quot;font-weight: normal;&quot;&gt;A&amp;nbsp;&lt;/span&gt;&lt;span style=&quot;font-weight: 400;&quot;&gt;→ C&lt;/span&gt;&lt;/font&gt;" name="Tessa Miller" position="CFO" location="Office 1" email="me@example.com" placeholders="1" id="nthaH2KU5fV0fkv0nu2V-174">
          <mxCell style="treeFolding=1;fontStyle=1;fontSize=14;html=1;rounded=1;" parent="dNxyNK7c78bLwvsdeMH5-11" vertex="1">
            <mxGeometry x="178.83" y="540" width="72" height="30" as="geometry" />
          </mxCell>
        </UserObject>
        <UserObject label="&lt;font style=&quot;font-size: 20px;&quot;&gt;&lt;font style=&quot;font-size: 20px;&quot;&gt;Biparticle&lt;/font&gt;&lt;br&gt;&lt;/font&gt;&lt;span style=&quot;font-weight: normal;&quot;&gt;&lt;font style=&quot;font-size: 18px;&quot;&gt;Particle a + Particle b&lt;/font&gt;&lt;/span&gt;" name="Tessa Miller" position="CFO" location="Office 1" email="me@example.com" placeholders="1" id="nthaH2KU5fV0fkv0nu2V-180">
          <mxCell style="treeFolding=1;fontStyle=1;fontSize=14;html=1;fillColor=#d5e8d4;strokeColor=#82b366;rounded=1;shadow=1;" parent="dNxyNK7c78bLwvsdeMH5-11" vertex="1">
            <mxGeometry x="177.95" y="620" width="183" height="50" as="geometry" />
          </mxCell>
        </UserObject>
        <mxCell id="nthaH2KU5fV0fkv0nu2V-181" value="" style="edgeStyle=elbowEdgeStyle;shape=connector;rounded=0;orthogonalLoop=1;jettySize=auto;elbow=vertical;html=1;shadow=0;strokeWidth=2;" parent="dNxyNK7c78bLwvsdeMH5-11" source="nthaH2KU5fV0fkv0nu2V-180" target="nthaH2KU5fV0fkv0nu2V-182" edge="1">
          <mxGeometry relative="1" as="geometry" />
        </mxCell>
        <mxCell id="Xs8TxQLDRZmYlR812Nf4-181" style="edgeStyle=orthogonalEdgeStyle;rounded=0;orthogonalLoop=1;jettySize=auto;html=1;entryX=0.5;entryY=0;entryDx=0;entryDy=0;dashed=1;dashPattern=1 4;" parent="dNxyNK7c78bLwvsdeMH5-11" source="nthaH2KU5fV0fkv0nu2V-182" target="Xs8TxQLDRZmYlR812Nf4-180" edge="1">
          <mxGeometry relative="1" as="geometry" />
        </mxCell>
        <UserObject label="&lt;font style=&quot;font-size: 18px;&quot;&gt;Bind&lt;/font&gt;" name="Tessa Miller" position="CFO" location="Office 1" email="me@example.com" placeholders="1" id="nthaH2KU5fV0fkv0nu2V-182">
          <mxCell style="treeFolding=1;fontStyle=1;fontSize=14;html=1;fillColor=#dae8fc;strokeColor=#6c8ebf;rounded=1;shadow=1;" parent="dNxyNK7c78bLwvsdeMH5-11" vertex="1">
            <mxGeometry x="37.2" y="710" width="183" height="40" as="geometry" />
          </mxCell>
        </UserObject>
        <mxCell id="nthaH2KU5fV0fkv0nu2V-186" value="" style="edgeStyle=elbowEdgeStyle;shape=connector;rounded=0;orthogonalLoop=1;jettySize=auto;elbow=vertical;html=1;shadow=0;strokeWidth=2;" parent="dNxyNK7c78bLwvsdeMH5-11" source="nthaH2KU5fV0fkv0nu2V-180" target="nthaH2KU5fV0fkv0nu2V-187" edge="1">
          <mxGeometry relative="1" as="geometry" />
        </mxCell>
        <mxCell id="Xs8TxQLDRZmYlR812Nf4-185" style="edgeStyle=orthogonalEdgeStyle;rounded=0;orthogonalLoop=1;jettySize=auto;html=1;entryX=0.5;entryY=0;entryDx=0;entryDy=0;dashed=1;dashPattern=1 4;" parent="dNxyNK7c78bLwvsdeMH5-11" source="nthaH2KU5fV0fkv0nu2V-187" target="Xs8TxQLDRZmYlR812Nf4-184" edge="1">
          <mxGeometry relative="1" as="geometry" />
        </mxCell>
        <UserObject label="&lt;font style=&quot;font-size: 18px;&quot;&gt;Enzymatic&lt;/font&gt;" name="Tessa Miller" position="CFO" location="Office 1" email="me@example.com" placeholders="1" id="nthaH2KU5fV0fkv0nu2V-187">
          <mxCell style="treeFolding=1;fontStyle=1;fontSize=14;html=1;fillColor=#dae8fc;strokeColor=#6c8ebf;rounded=1;shadow=1;" parent="dNxyNK7c78bLwvsdeMH5-11" vertex="1">
            <mxGeometry x="315.45" y="710" width="183" height="40" as="geometry" />
          </mxCell>
        </UserObject>
        <mxCell id="nthaH2KU5fV0fkv0nu2V-188" value="" style="edgeStyle=elbowEdgeStyle;shape=connector;rounded=0;orthogonalLoop=1;jettySize=auto;elbow=vertical;html=1;" parent="dNxyNK7c78bLwvsdeMH5-11" source="nthaH2KU5fV0fkv0nu2V-182" target="nthaH2KU5fV0fkv0nu2V-189" edge="1">
          <mxGeometry relative="1" as="geometry">
            <mxPoint x="587.6299999999999" y="770" as="sourcePoint" />
          </mxGeometry>
        </mxCell>
        <UserObject label="&lt;font style=&quot;font-size: 16px;&quot;&gt;&lt;span style=&quot;font-weight: 400;&quot;&gt;U&lt;sub&gt;X&lt;/sub&gt;(&lt;/span&gt;r&lt;sub style=&quot;font-weight: 400;&quot;&gt;a&lt;/sub&gt;&lt;span style=&quot;font-weight: 400;&quot;&gt;,&lt;/span&gt;r&lt;sub style=&quot;font-weight: 400;&quot;&gt;b&lt;/sub&gt;&lt;span style=&quot;font-weight: 400;&quot;&gt;)&lt;/span&gt;&lt;/font&gt;" name="Tessa Miller" position="CFO" location="Office 1" email="me@example.com" placeholders="1" id="nthaH2KU5fV0fkv0nu2V-189">
          <mxCell style="treeFolding=1;fontStyle=1;fontSize=14;html=1;rounded=1;" parent="dNxyNK7c78bLwvsdeMH5-11" vertex="1">
            <mxGeometry x="30" y="790" width="77.2" height="30" as="geometry" />
          </mxCell>
        </UserObject>
        <mxCell id="nthaH2KU5fV0fkv0nu2V-196" value="" style="edgeStyle=elbowEdgeStyle;shape=connector;rounded=0;orthogonalLoop=1;jettySize=auto;elbow=vertical;html=1;" parent="dNxyNK7c78bLwvsdeMH5-11" source="nthaH2KU5fV0fkv0nu2V-187" target="nthaH2KU5fV0fkv0nu2V-197" edge="1">
          <mxGeometry relative="1" as="geometry">
            <mxPoint x="587.6299999999999" y="770" as="sourcePoint" />
          </mxGeometry>
        </mxCell>
        <UserObject label="&lt;font style=&quot;font-size: 16px;&quot;&gt;&lt;span style=&quot;font-weight: normal;&quot;&gt;a + b &lt;/span&gt;&lt;span style=&quot;font-weight: 400;&quot;&gt;→&amp;nbsp;&lt;/span&gt;&lt;span style=&quot;font-weight: normal;&quot;&gt;c + b&amp;nbsp;&lt;/span&gt;&lt;/font&gt;" name="Tessa Miller" position="CFO" location="Office 1" email="me@example.com" placeholders="1" id="nthaH2KU5fV0fkv0nu2V-197">
          <mxCell style="treeFolding=1;fontStyle=1;fontSize=14;html=1;rounded=1;" parent="dNxyNK7c78bLwvsdeMH5-11" vertex="1">
            <mxGeometry x="270" y="790" width="110.52" height="30" as="geometry" />
          </mxCell>
        </UserObject>
        <UserObject label="&lt;font style=&quot;font-size: 20px;&quot;&gt;Biparticle&lt;/font&gt;&lt;br&gt;&lt;span style=&quot;font-weight: normal;&quot;&gt;&lt;font style=&quot;font-size: 16px;&quot;&gt;Particle a of Molecule A + Molecule B&lt;/font&gt;&lt;/span&gt;" name="Tessa Miller" position="CFO" location="Office 1" email="me@example.com" placeholders="1" id="nthaH2KU5fV0fkv0nu2V-200">
          <mxCell style="treeFolding=1;fontStyle=1;fontSize=14;html=1;fillColor=#d5e8d4;strokeColor=#82b366;rounded=1;shadow=1;" parent="dNxyNK7c78bLwvsdeMH5-11" vertex="1">
            <mxGeometry x="641.88" y="620" width="280" height="50" as="geometry" />
          </mxCell>
        </UserObject>
        <mxCell id="nthaH2KU5fV0fkv0nu2V-201" value="" style="edgeStyle=elbowEdgeStyle;shape=connector;rounded=0;orthogonalLoop=1;jettySize=auto;elbow=vertical;html=1;shadow=0;strokeWidth=2;" parent="dNxyNK7c78bLwvsdeMH5-11" source="nthaH2KU5fV0fkv0nu2V-200" target="nthaH2KU5fV0fkv0nu2V-202" edge="1">
          <mxGeometry relative="1" as="geometry" />
        </mxCell>
        <mxCell id="Xs8TxQLDRZmYlR812Nf4-187" style="edgeStyle=orthogonalEdgeStyle;rounded=0;orthogonalLoop=1;jettySize=auto;html=1;entryX=0.5;entryY=0;entryDx=0;entryDy=0;dashed=1;dashPattern=1 4;" parent="dNxyNK7c78bLwvsdeMH5-11" source="nthaH2KU5fV0fkv0nu2V-202" target="Xs8TxQLDRZmYlR812Nf4-186" edge="1">
          <mxGeometry relative="1" as="geometry" />
        </mxCell>
        <UserObject label="&lt;font style=&quot;font-size: 18px;&quot;&gt;Absoprtion&lt;/font&gt;" name="Tessa Miller" position="CFO" location="Office 1" email="me@example.com" placeholders="1" id="nthaH2KU5fV0fkv0nu2V-202">
          <mxCell style="treeFolding=1;fontStyle=1;fontSize=14;html=1;fillColor=#dae8fc;strokeColor=#6c8ebf;rounded=1;shadow=1;" parent="dNxyNK7c78bLwvsdeMH5-11" vertex="1">
            <mxGeometry x="690.3799999999999" y="710" width="183" height="40" as="geometry" />
          </mxCell>
        </UserObject>
        <mxCell id="nthaH2KU5fV0fkv0nu2V-203" value="" style="edgeStyle=elbowEdgeStyle;shape=connector;rounded=0;orthogonalLoop=1;jettySize=auto;elbow=vertical;html=1;" parent="dNxyNK7c78bLwvsdeMH5-11" source="nthaH2KU5fV0fkv0nu2V-202" target="nthaH2KU5fV0fkv0nu2V-204" edge="1">
          <mxGeometry relative="1" as="geometry">
            <mxPoint x="1054.8800000000003" y="770" as="sourcePoint" />
          </mxGeometry>
        </mxCell>
        <UserObject label="&lt;font style=&quot;font-size: 16px;&quot;&gt;&lt;span style=&quot;font-weight: normal;&quot;&gt;a(A) + B &lt;/span&gt;&lt;span style=&quot;font-weight: 400;&quot;&gt;→ a&lt;/span&gt;&lt;span style=&quot;font-weight: normal;&quot;&gt;(A)&lt;/span&gt;&lt;/font&gt;" name="Tessa Miller" position="CFO" location="Office 1" email="me@example.com" placeholders="1" id="nthaH2KU5fV0fkv0nu2V-204">
          <mxCell style="treeFolding=1;fontStyle=1;fontSize=14;html=1;rounded=1;" parent="dNxyNK7c78bLwvsdeMH5-11" vertex="1">
            <mxGeometry x="570" y="790" width="130" height="30" as="geometry" />
          </mxCell>
        </UserObject>
        <mxCell id="nthaH2KU5fV0fkv0nu2V-205" value="" style="edgeStyle=elbowEdgeStyle;shape=connector;rounded=0;orthogonalLoop=1;jettySize=auto;elbow=vertical;html=1;" parent="dNxyNK7c78bLwvsdeMH5-11" source="nthaH2KU5fV0fkv0nu2V-202" target="nthaH2KU5fV0fkv0nu2V-206" edge="1">
          <mxGeometry relative="1" as="geometry">
            <mxPoint x="1054.8800000000003" y="770" as="sourcePoint" />
          </mxGeometry>
        </mxCell>
        <UserObject label="&lt;font style=&quot;font-size: 16px;&quot;&gt;&lt;span style=&quot;font-weight: normal;&quot;&gt;a(A) + B&amp;nbsp;&lt;/span&gt;&lt;span style=&quot;font-weight: 400;&quot;&gt;→ b(A)&lt;/span&gt;&lt;/font&gt;" name="Tessa Miller" position="CFO" location="Office 1" email="me@example.com" placeholders="1" id="nthaH2KU5fV0fkv0nu2V-206">
          <mxCell style="treeFolding=1;fontStyle=1;fontSize=14;html=1;rounded=1;" parent="dNxyNK7c78bLwvsdeMH5-11" vertex="1">
            <mxGeometry x="719.05" y="790" width="125.66" height="30" as="geometry" />
          </mxCell>
        </UserObject>
        <mxCell id="nthaH2KU5fV0fkv0nu2V-171" value="" style="edgeStyle=elbowEdgeStyle;shape=connector;rounded=0;orthogonalLoop=1;jettySize=auto;elbow=vertical;html=1;" parent="dNxyNK7c78bLwvsdeMH5-11" source="nthaH2KU5fV0fkv0nu2V-167" target="nthaH2KU5fV0fkv0nu2V-172" edge="1">
          <mxGeometry relative="1" as="geometry">
            <mxPoint x="678.8799999999999" y="670" as="sourcePoint" />
          </mxGeometry>
        </mxCell>
        <mxCell id="nthaH2KU5fV0fkv0nu2V-177" value="" style="edgeStyle=elbowEdgeStyle;shape=connector;rounded=0;orthogonalLoop=1;jettySize=auto;elbow=vertical;html=1;" parent="dNxyNK7c78bLwvsdeMH5-11" source="nthaH2KU5fV0fkv0nu2V-167" target="nthaH2KU5fV0fkv0nu2V-178" edge="1">
          <mxGeometry relative="1" as="geometry">
            <mxPoint x="678.8799999999999" y="670" as="sourcePoint" />
          </mxGeometry>
        </mxCell>
        <mxCell id="Xs8TxQLDRZmYlR812Nf4-189" style="edgeStyle=orthogonalEdgeStyle;rounded=0;orthogonalLoop=1;jettySize=auto;html=1;entryX=0.5;entryY=0;entryDx=0;entryDy=0;dashed=1;dashPattern=1 4;" parent="dNxyNK7c78bLwvsdeMH5-11" source="nthaH2KU5fV0fkv0nu2V-165" target="Xs8TxQLDRZmYlR812Nf4-188" edge="1">
          <mxGeometry relative="1" as="geometry" />
        </mxCell>
        <UserObject label="Conversion" name="Tessa Miller" position="CFO" location="Office 1" email="me@example.com" placeholders="1" id="nthaH2KU5fV0fkv0nu2V-165">
          <mxCell style="treeFolding=1;fontStyle=1;fontSize=18;fillColor=#dae8fc;strokeColor=#6c8ebf;rounded=1;sketch=0;shadow=1;" parent="dNxyNK7c78bLwvsdeMH5-11" vertex="1">
            <mxGeometry x="1015.2899999999998" y="710" width="133" height="40" as="geometry" />
          </mxCell>
        </UserObject>
        <UserObject label="&lt;font style=&quot;font-size: 16px;&quot;&gt;&lt;span style=&quot;font-weight: normal;&quot;&gt;a&amp;nbsp;&lt;/span&gt;&lt;span style=&quot;font-weight: 400;&quot;&gt;→ b&lt;/span&gt;&lt;/font&gt;" name="Tessa Miller" position="CFO" location="Office 1" email="me@example.com" placeholders="1" id="nthaH2KU5fV0fkv0nu2V-170">
          <mxCell style="treeFolding=1;fontStyle=1;fontSize=14;html=1;rounded=1;" parent="dNxyNK7c78bLwvsdeMH5-11" vertex="1">
            <mxGeometry x="990.92" y="790" width="58.16" height="30" as="geometry" />
          </mxCell>
        </UserObject>
        <UserObject label="&lt;font style=&quot;font-size: 20px;&quot;&gt;Uniparticle&lt;/font&gt;&lt;br&gt;&lt;span style=&quot;font-weight: normal;&quot;&gt;&lt;font style=&quot;font-size: 18px;&quot;&gt;Particle a&lt;/font&gt;&lt;/span&gt;" name="Tessa Miller" position="CFO" location="Office 1" email="me@example.com" placeholders="1" id="nthaH2KU5fV0fkv0nu2V-163">
          <mxCell style="treeFolding=1;fontStyle=1;fontSize=14;html=1;fillColor=#d5e8d4;strokeColor=#82b366;rounded=1;glass=0;shadow=1;sketch=0;" parent="dNxyNK7c78bLwvsdeMH5-11" vertex="1">
            <mxGeometry x="1165.6299999999999" y="620" width="133" height="50" as="geometry" />
          </mxCell>
        </UserObject>
        <mxCell id="nthaH2KU5fV0fkv0nu2V-169" value="" style="edgeStyle=elbowEdgeStyle;shape=connector;rounded=0;orthogonalLoop=1;jettySize=auto;elbow=vertical;html=1;" parent="dNxyNK7c78bLwvsdeMH5-11" source="nthaH2KU5fV0fkv0nu2V-165" target="nthaH2KU5fV0fkv0nu2V-170" edge="1">
          <mxGeometry relative="1" as="geometry">
            <mxPoint x="678.8799999999999" y="670" as="sourcePoint" />
          </mxGeometry>
        </mxCell>
        <mxCell id="Xs8TxQLDRZmYlR812Nf4-193" style="edgeStyle=orthogonalEdgeStyle;rounded=0;orthogonalLoop=1;jettySize=auto;html=1;entryX=0.5;entryY=0;entryDx=0;entryDy=0;dashed=1;dashPattern=1 4;" parent="dNxyNK7c78bLwvsdeMH5-11" source="nthaH2KU5fV0fkv0nu2V-167" target="Xs8TxQLDRZmYlR812Nf4-190" edge="1">
          <mxGeometry relative="1" as="geometry">
            <Array as="points">
              <mxPoint x="1419" y="770" />
              <mxPoint x="1514" y="770" />
            </Array>
          </mxGeometry>
        </mxCell>
        <UserObject label="Release" name="Tessa Miller" position="CFO" location="Office 1" email="me@example.com" placeholders="1" id="nthaH2KU5fV0fkv0nu2V-167">
          <mxCell style="treeFolding=1;fontStyle=1;fontSize=18;fillColor=#dae8fc;strokeColor=#6c8ebf;rounded=1;shadow=1;" parent="dNxyNK7c78bLwvsdeMH5-11" vertex="1">
            <mxGeometry x="1352.6299999999997" y="710" width="133" height="40" as="geometry" />
          </mxCell>
        </UserObject>
        <UserObject label="&lt;font style=&quot;font-size: 16px;&quot;&gt;&lt;span style=&quot;font-weight: normal;&quot;&gt;a(A) &lt;/span&gt;&lt;span style=&quot;font-weight: 400;&quot;&gt;→&lt;/span&gt;&lt;span style=&quot;font-weight: normal;&quot;&gt;&amp;nbsp;a(A) + B&lt;/span&gt;&lt;/font&gt;" name="Tessa Miller" position="CFO" location="Office 1" email="me@example.com" placeholders="1" id="nthaH2KU5fV0fkv0nu2V-172">
          <mxCell style="treeFolding=1;fontStyle=1;fontSize=14;html=1;rounded=1;" parent="dNxyNK7c78bLwvsdeMH5-11" vertex="1">
            <mxGeometry x="1213.22" y="790" width="126.5" height="30" as="geometry" />
          </mxCell>
        </UserObject>
        <mxCell id="nthaH2KU5fV0fkv0nu2V-164" value="" style="edgeStyle=elbowEdgeStyle;shape=connector;rounded=0;orthogonalLoop=1;jettySize=auto;elbow=vertical;html=1;shadow=0;strokeWidth=2;" parent="dNxyNK7c78bLwvsdeMH5-11" source="nthaH2KU5fV0fkv0nu2V-163" target="nthaH2KU5fV0fkv0nu2V-165" edge="1">
          <mxGeometry relative="1" as="geometry" />
        </mxCell>
        <UserObject label="&lt;font style=&quot;font-size: 16px;&quot;&gt;&lt;span style=&quot;font-weight: normal;&quot;&gt;a(A)&amp;nbsp;&lt;/span&gt;&lt;span style=&quot;font-weight: 400;&quot;&gt;→&lt;/span&gt;&lt;span style=&quot;font-weight: normal;&quot;&gt;&amp;nbsp;b(A) + B&lt;/span&gt;&lt;/font&gt;" name="Tessa Miller" position="CFO" location="Office 1" email="me@example.com" placeholders="1" id="nthaH2KU5fV0fkv0nu2V-178">
          <mxCell style="treeFolding=1;fontStyle=1;fontSize=14;html=1;rounded=1;" parent="dNxyNK7c78bLwvsdeMH5-11" vertex="1">
            <mxGeometry x="1356.42" y="790" width="125.42" height="30" as="geometry" />
          </mxCell>
        </UserObject>
        <mxCell id="nthaH2KU5fV0fkv0nu2V-166" value="" style="edgeStyle=elbowEdgeStyle;shape=connector;rounded=0;orthogonalLoop=1;jettySize=auto;elbow=vertical;html=1;shadow=0;strokeWidth=2;" parent="dNxyNK7c78bLwvsdeMH5-11" source="nthaH2KU5fV0fkv0nu2V-163" target="nthaH2KU5fV0fkv0nu2V-167" edge="1">
          <mxGeometry relative="1" as="geometry" />
        </mxCell>
        <mxCell id="Tpmzjla3FftMG9qdVZ2w-5" value="" style="endArrow=none;dashed=1;html=1;rounded=1;shadow=0;fontSize=24;strokeWidth=2;elbow=vertical;" parent="dNxyNK7c78bLwvsdeMH5-11" edge="1">
          <mxGeometry width="50" height="50" relative="1" as="geometry">
            <mxPoint y="335" as="sourcePoint" />
            <mxPoint x="1570" y="335" as="targetPoint" />
          </mxGeometry>
        </mxCell>
        <UserObject label="" name="Edward Morrison" position="Brand Manager" location="Office 2" email="me@example.com" placeholders="1" id="Xs8TxQLDRZmYlR812Nf4-18">
          <mxCell style="treeFolding=1;fontSize=14;rounded=1;dashed=1;dashPattern=1 4;strokeColor=default;" parent="dNxyNK7c78bLwvsdeMH5-11" vertex="1">
            <mxGeometry x="319.44" y="280" width="71.63" height="30" as="geometry" />
          </mxCell>
        </UserObject>
        <mxCell id="Xs8TxQLDRZmYlR812Nf4-36" style="edgeStyle=orthogonalEdgeStyle;rounded=0;orthogonalLoop=1;jettySize=auto;html=1;entryX=0.5;entryY=0;entryDx=0;entryDy=0;" parent="dNxyNK7c78bLwvsdeMH5-11" source="dNxyNK7c78bLwvsdeMH5-14" target="nthaH2KU5fV0fkv0nu2V-3" edge="1">
          <mxGeometry relative="1" as="geometry" />
        </mxCell>
        <mxCell id="Xs8TxQLDRZmYlR812Nf4-37" value="&lt;font style=&quot;font-size: 14px;&quot;&gt;Reaction on&amp;nbsp; particle pair {c,d}&lt;/font&gt;" style="edgeLabel;html=1;align=center;verticalAlign=middle;resizable=0;points=[];" parent="Xs8TxQLDRZmYlR812Nf4-36" vertex="1" connectable="0">
          <mxGeometry x="-0.3029" y="-2" relative="1" as="geometry">
            <mxPoint as="offset" />
          </mxGeometry>
        </mxCell>
        <mxCell id="Xs8TxQLDRZmYlR812Nf4-45" style="edgeStyle=orthogonalEdgeStyle;rounded=0;orthogonalLoop=1;jettySize=auto;html=1;entryX=0.5;entryY=0;entryDx=0;entryDy=0;dashed=1;dashPattern=1 4;" parent="dNxyNK7c78bLwvsdeMH5-11" source="Xs8TxQLDRZmYlR812Nf4-39" target="Xs8TxQLDRZmYlR812Nf4-44" edge="1">
          <mxGeometry relative="1" as="geometry" />
        </mxCell>
        <UserObject label="" name="Edward Morrison" position="Brand Manager" location="Office 2" email="me@example.com" placeholders="1" id="Xs8TxQLDRZmYlR812Nf4-39">
          <mxCell style="treeFolding=1;fontSize=14;fillColor=#fff2cc;strokeColor=#d6b656;rounded=1;shadow=1;html=1;dashed=1;dashPattern=1 4;" parent="dNxyNK7c78bLwvsdeMH5-11" vertex="1">
            <mxGeometry x="760" y="200" width="118.5" height="30" as="geometry" />
          </mxCell>
        </UserObject>
        <UserObject label="" name="Edward Morrison" position="Brand Manager" location="Office 2" email="me@example.com" placeholders="1" id="Xs8TxQLDRZmYlR812Nf4-44">
          <mxCell style="treeFolding=1;fontSize=14;rounded=1;dashed=1;dashPattern=1 4;" parent="dNxyNK7c78bLwvsdeMH5-11" vertex="1">
            <mxGeometry x="765.4100000000001" y="280" width="107.68" height="30" as="geometry" />
          </mxCell>
        </UserObject>
        <mxCell id="Xs8TxQLDRZmYlR812Nf4-63" value="" style="rounded=1;whiteSpace=wrap;html=1;dashed=1;dashPattern=1 4;" parent="dNxyNK7c78bLwvsdeMH5-11" vertex="1">
          <mxGeometry x="281.33" y="540" width="70" height="30" as="geometry" />
        </mxCell>
        <mxCell id="Xs8TxQLDRZmYlR812Nf4-62" style="edgeStyle=orthogonalEdgeStyle;rounded=0;orthogonalLoop=1;jettySize=auto;html=1;dashed=1;dashPattern=1 4;" parent="dNxyNK7c78bLwvsdeMH5-11" source="nthaH2KU5fV0fkv0nu2V-91" target="Xs8TxQLDRZmYlR812Nf4-63" edge="1">
          <mxGeometry relative="1" as="geometry">
            <mxPoint x="272.15" y="540" as="targetPoint" />
            <Array as="points">
              <mxPoint x="312.15" y="470" />
            </Array>
          </mxGeometry>
        </mxCell>
        <mxCell id="Xs8TxQLDRZmYlR812Nf4-72" value="&lt;font style=&quot;font-size: 14px;&quot;&gt;Reaction path n&lt;/font&gt;" style="edgeLabel;html=1;align=center;verticalAlign=middle;resizable=0;points=[];" parent="Xs8TxQLDRZmYlR812Nf4-62" vertex="1" connectable="0">
          <mxGeometry x="0.0245" y="1" relative="1" as="geometry">
            <mxPoint x="3" y="14" as="offset" />
          </mxGeometry>
        </mxCell>
        <UserObject label="" name="Tessa Miller" position="CFO" location="Office 1" email="me@example.com" placeholders="1" id="Xs8TxQLDRZmYlR812Nf4-65">
          <mxCell style="treeFolding=1;fontStyle=1;fontSize=14;html=1;rounded=1;dashed=1;dashPattern=1 4;" parent="dNxyNK7c78bLwvsdeMH5-11" vertex="1">
            <mxGeometry x="808.59" y="540" width="93.12" height="30" as="geometry" />
          </mxCell>
        </UserObject>
        <UserObject label="" name="Tessa Miller" position="CFO" location="Office 1" email="me@example.com" placeholders="1" id="Xs8TxQLDRZmYlR812Nf4-73">
          <mxCell style="treeFolding=1;fontStyle=0;fontSize=14;rounded=1;dashed=1;dashPattern=1 4;" parent="dNxyNK7c78bLwvsdeMH5-11" vertex="1">
            <mxGeometry x="1183.72" y="540" width="99" height="30" as="geometry" />
          </mxCell>
        </UserObject>
        <mxCell id="Tpmzjla3FftMG9qdVZ2w-6" value="" style="endArrow=none;dashed=1;html=1;rounded=1;shadow=0;fontSize=24;strokeWidth=2;elbow=vertical;" parent="dNxyNK7c78bLwvsdeMH5-11" edge="1">
          <mxGeometry width="50" height="50" relative="1" as="geometry">
            <mxPoint y="600" as="sourcePoint" />
            <mxPoint x="1570" y="600" as="targetPoint" />
          </mxGeometry>
        </mxCell>
        <UserObject label="" name="Tessa Miller" position="CFO" location="Office 1" email="me@example.com" placeholders="1" id="Xs8TxQLDRZmYlR812Nf4-180">
          <mxCell style="treeFolding=1;fontStyle=1;fontSize=14;html=1;rounded=1;dashed=1;dashPattern=1 4;" parent="dNxyNK7c78bLwvsdeMH5-11" vertex="1">
            <mxGeometry x="147.2" y="790" width="70" height="30" as="geometry" />
          </mxCell>
        </UserObject>
        <UserObject label="" name="Tessa Miller" position="CFO" location="Office 1" email="me@example.com" placeholders="1" id="Xs8TxQLDRZmYlR812Nf4-184">
          <mxCell style="treeFolding=1;fontStyle=1;fontSize=14;html=1;rounded=1;dashed=1;dashPattern=1 4;" parent="dNxyNK7c78bLwvsdeMH5-11" vertex="1">
            <mxGeometry x="430" y="790" width="100" height="30" as="geometry" />
          </mxCell>
        </UserObject>
        <UserObject label="" name="Tessa Miller" position="CFO" location="Office 1" email="me@example.com" placeholders="1" id="Xs8TxQLDRZmYlR812Nf4-186">
          <mxCell style="treeFolding=1;fontStyle=1;fontSize=14;html=1;rounded=1;dashed=1;dashPattern=1 4;" parent="dNxyNK7c78bLwvsdeMH5-11" vertex="1">
            <mxGeometry x="864.6600000000001" y="790" width="69.93" height="30" as="geometry" />
          </mxCell>
        </UserObject>
        <UserObject label="" name="Tessa Miller" position="CFO" location="Office 1" email="me@example.com" placeholders="1" id="Xs8TxQLDRZmYlR812Nf4-188">
          <mxCell style="treeFolding=1;fontStyle=1;fontSize=14;html=1;rounded=1;dashed=1;dashPattern=1 4;" parent="dNxyNK7c78bLwvsdeMH5-11" vertex="1">
            <mxGeometry x="1110" y="790" width="58.09" height="30" as="geometry" />
          </mxCell>
        </UserObject>
        <UserObject label="" name="Tessa Miller" position="CFO" location="Office 1" email="me@example.com" placeholders="1" id="Xs8TxQLDRZmYlR812Nf4-190">
          <mxCell style="treeFolding=1;fontStyle=1;fontSize=14;html=1;rounded=1;dashed=1;dashPattern=1 4;" parent="dNxyNK7c78bLwvsdeMH5-11" vertex="1">
            <mxGeometry x="1494.13" y="790" width="40" height="30" as="geometry" />
          </mxCell>
        </UserObject>
      </root>
    </mxGraphModel>
  </diagram>
</mxfile>
